<?xml version="1.0" standalone="no"?>
<!DOCTYPE svg PUBLIC "-//W3C//DTD SVG 20010904//EN"
 "http://www.w3.org/TR/2001/REC-SVG-20010904/DTD/svg10.dtd">
<svg version="1.0" xmlns="http://www.w3.org/2000/svg"
 width="600.000000pt" height="600.000000pt" viewBox="0 0 600.000000 600.000000"
 preserveAspectRatio="xMidYMid meet">
<metadata>
Created by potrace 1.12, written by Peter Selinger 2001-2015
</metadata>
<g transform="translate(0.000000,600.000000) scale(0.100000,-0.100000)"
fill="#000000" stroke="none">
<path d="M2800 5150 c0 -29 4 -40 15 -40 12 0 15 -16 15 -80 0 -64 -3 -80 -15
-80 -11 0 -15 -11 -15 -40 l0 -40 85 0 85 0 0 40 c0 29 -4 40 -15 40 -8 0 -15
7 -15 15 0 12 17 15 90 15 73 0 90 -3 90 -15 0 -8 -7 -15 -15 -15 -11 0 -15
-11 -15 -40 l0 -40 90 0 90 0 0 40 c0 33 -3 40 -20 40 -18 0 -20 7 -20 80 0
73 2 80 20 80 17 0 20 7 20 40 l0 40 -90 0 -90 0 0 -35 c0 -22 6 -38 15 -41 8
-4 15 -17 15 -30 0 -24 -2 -24 -90 -24 -89 0 -90 0 -90 25 0 16 6 25 15 25 11
0 15 11 15 40 l0 40 -85 0 -85 0 0 -40z"/>
<path d="M3726 5140 c-9 -45 -8 -47 12 -52 16 -5 18 -12 11 -64 -4 -32 -8 -69
-8 -81 -1 -16 -7 -23 -21 -23 -17 0 -20 -7 -20 -40 0 -39 0 -40 38 -40 42 -1
97 -6 257 -25 61 -7 111 -12 111 -11 1 0 5 29 8 64 l7 62 -30 0 c-16 0 -36 3
-45 6 -12 5 -16 0 -16 -20 0 -29 -3 -30 -112 -19 -56 5 -68 9 -68 24 0 25 18
33 68 30 48 -3 62 7 62 46 0 19 -7 22 -55 28 -50 7 -55 9 -55 33 0 24 1 25 53
18 28 -3 68 -6 88 -6 34 0 35 -1 31 -30 -4 -30 -4 -30 41 -30 l44 0 7 46 c3
26 6 52 6 59 0 14 -34 20 -200 35 -63 6 -136 13 -161 16 -46 6 -46 6 -53 -26z"/>
<path d="M2318 5155 c-1 -1 -34 -6 -73 -9 -38 -4 -113 -11 -165 -16 -52 -5
-112 -11 -133 -12 -46 -3 -49 -6 -41 -55 6 -38 6 -38 45 -35 25 3 39 9 39 18
0 10 12 14 39 14 l40 0 6 -57 c3 -32 8 -73 11 -90 5 -32 -5 -40 -40 -34 -5 1
-6 -12 -2 -30 3 -17 6 -36 6 -41 0 -8 38 -6 163 8 46 6 47 7 47 40 0 29 -3 34
-24 34 -22 0 -24 5 -30 68 -4 37 -9 78 -12 93 -4 23 -2 25 36 27 22 2 40 -2
40 -8 0 -11 59 -14 76 -2 15 9 6 79 -11 86 -7 2 -15 3 -17 1z"/>
<path d="M1475 5009 c-236 -49 -235 -49 -285 -123 l-43 -64 -126 -32 c-119
-30 -339 -90 -478 -130 l-63 -18 0 50 c0 36 -4 49 -12 45 -7 -2 -85 -25 -173
-51 -88 -26 -171 -51 -185 -55 -17 -5 -38 -31 -67 -82 l-43 -74 0 -557 0 -556
158 65 c86 35 169 69 184 74 14 6 54 45 87 87 l61 77 0 231 c0 202 2 233 16
238 9 3 18 6 20 6 2 0 4 -310 4 -690 l0 -689 -65 -38 -65 -37 0 -239 c0 -187
3 -238 13 -234 6 3 59 24 117 47 58 24 199 75 315 115 l210 72 39 52 c27 35
42 48 47 39 4 -6 5 -16 3 -20 -3 -4 -1 -14 3 -22 7 -12 20 -10 83 9 41 13 127
40 190 59 l115 36 53 69 c50 65 52 71 53 132 l1 64 11 -38 c15 -48 69 -104
116 -118 20 -6 102 -14 183 -16 170 -6 312 12 443 57 92 31 129 52 185 104
l40 37 0 -69 0 -68 268 -1 c235 -1 354 -6 612 -29 121 -10 480 -64 633 -95
159 -31 442 -100 586 -142 l84 -25 18 22 18 21 6 -30 c6 -27 15 -34 93 -64 48
-18 175 -73 282 -121 107 -49 212 -95 232 -104 l38 -15 55 83 55 82 0 190 -1
189 -52 30 -52 30 -3 658 c-2 526 0 658 10 655 10 -4 14 -73 16 -295 l2 -290
108 -41 c100 -39 273 -102 277 -102 1 0 23 27 49 59 l46 60 -2 563 -3 563
-180 67 c-99 38 -187 70 -195 73 -9 3 -38 -15 -68 -41 l-53 -47 -142 43 c-78
24 -209 60 -292 80 l-150 37 -3 61 c-2 34 -5 62 -7 62 -2 0 -64 11 -137 24
-137 25 -227 40 -241 41 -5 0 -33 -18 -63 -40 l-53 -40 -1 -172 c0 -95 -4
-173 -8 -173 -5 0 -33 4 -63 10 -30 5 -72 11 -94 14 -22 3 -92 12 -155 20
-118 16 -147 18 -360 35 -267 22 -650 32 -855 23 l-170 -7 -3 -57 -3 -57 -73
35 c-102 49 -233 74 -382 74 -211 0 -382 -59 -485 -167 -56 -59 -76 -90 -99
-157 l-19 -51 0 373 c-1 291 -4 372 -13 371 -7 0 -76 -14 -153 -30z m135
-1129 l0 -1109 -117 -36 c-65 -20 -138 -43 -162 -51 -25 -8 -48 -14 -53 -14
-4 0 -8 410 -8 910 0 807 -2 910 -15 910 -9 0 -67 -11 -131 -25 -64 -14 -117
-25 -120 -25 -2 0 -4 -347 -4 -771 l0 -770 23 7 c12 3 39 15 59 25 21 11 40
19 43 19 3 0 4 -75 3 -166 l-3 -166 -115 -40 c-89 -32 -390 -150 -468 -185 -9
-4 -12 32 -12 164 l0 169 65 28 65 28 0 774 c0 426 -3 774 -7 774 -5 0 -50
-14 -100 -31 l-93 -32 -2 -291 -3 -291 -165 -71 -165 -71 -3 525 c-1 289 -1
527 1 529 9 8 323 100 330 96 4 -2 7 -24 7 -49 0 -24 1 -44 3 -44 1 1 180 49
397 109 l395 107 3 56 3 57 52 10 c234 48 283 57 290 54 4 -2 7 -503 7 -1113z
m3138 1058 l122 -21 0 -63 0 -62 33 -7 c141 -29 621 -163 721 -201 13 -5 16 4
16 56 l0 62 33 -7 c26 -6 113 -39 295 -112 9 -4 12 -117 12 -520 0 -408 -3
-514 -12 -511 -7 3 -84 31 -170 63 l-158 58 0 291 0 291 -78 27 c-42 15 -85
30 -95 33 -16 7 -17 -32 -15 -771 l3 -778 58 -39 57 -38 0 -159 c0 -88 -4
-160 -9 -160 -5 0 -42 14 -82 31 -41 18 -171 71 -289 120 l-215 87 -3 161 c-3
174 -3 172 50 152 13 -4 35 -11 51 -15 l27 -6 0 758 0 757 -92 24 c-51 13 -99
26 -105 29 -10 3 -13 -63 -13 -312 0 -174 -3 -316 -7 -316 -5 1 -80 16 -168
33 l-160 33 -3 145 -3 144 -102 19 c-56 10 -112 20 -125 23 l-22 5 2 -193 3
-193 138 -34 137 -34 0 -153 c0 -141 -1 -153 -17 -149 -10 3 -73 15 -140 28
l-123 23 0 -207 0 -207 103 -22 c56 -12 112 -24 125 -27 l22 -6 0 146 0 146
28 -6 c36 -8 251 -62 280 -70 l22 -6 0 -314 c0 -173 -4 -314 -9 -314 -4 0 -90
22 -190 50 -598 163 -1137 234 -1746 229 l-190 -1 0 148 0 149 60 5 60 5 3
558 2 557 -60 0 -60 0 0 143 0 144 223 7 c261 8 652 -7 927 -35 186 -18 479
-60 565 -79 81 -19 75 -37 75 216 l0 227 43 -7 c23 -4 97 -16 165 -28z m-2293
-333 c102 -19 174 -59 200 -111 18 -36 19 -61 20 -304 l0 -265 -160 -11 c-88
-5 -163 -9 -167 -7 -5 3 -8 97 -8 210 l0 205 -42 -5 c-24 -4 -78 -9 -120 -13
l-78 -6 0 -555 0 -555 103 7 c56 4 110 9 120 11 15 5 17 24 17 228 l0 223 53
7 c28 3 106 9 171 13 l119 6 -6 -304 c-6 -327 -8 -343 -62 -408 -48 -56 -276
-108 -512 -118 -178 -7 -219 3 -277 67 -72 80 -71 75 -67 805 2 539 6 656 18
685 29 70 113 136 217 170 122 39 328 51 461 25z m-1305 -939 l0 -664 -49 -21
c-27 -11 -55 -21 -60 -21 -8 0 -10 198 -9 667 l3 667 45 18 c25 9 51 17 58 17
9 1 12 -138 12 -663z m3808 588 l22 -6 0 -634 c0 -586 -1 -634 -17 -634 -9 0
-25 -7 -35 -17 -17 -16 -18 -10 -18 165 0 107 -4 183 -10 187 -5 3 -74 21
-152 38 l-143 33 -3 157 -3 158 38 -7 c21 -3 66 -12 100 -19 l62 -12 55 64 56
65 0 234 c0 248 -1 241 48 228z m-2208 -534 c0 -453 0 -460 -20 -460 -19 0
-20 7 -20 235 l0 235 -42 -5 c-24 -3 -112 -12 -197 -20 -84 -8 -159 -20 -167
-26 -7 -6 -27 -32 -43 -58 l-31 -48 0 -170 0 -170 -31 -7 c-76 -15 -69 -60
-69 454 0 384 2 460 14 460 7 0 28 3 45 6 l31 7 0 -207 c0 -158 3 -206 13
-206 6 0 84 7 172 15 88 8 167 15 176 15 8 0 41 31 72 69 l57 70 0 135 c0 129
1 136 20 136 20 0 20 -7 20 -460z m1662 314 c5 -3 8 -43 8 -90 0 -91 1 -90
-59 -78 l-31 7 0 89 0 90 37 -7 c21 -4 41 -9 45 -11z m1 -715 c26 -6 47 -14
47 -18 0 -3 -9 -19 -20 -36 -14 -21 -20 -47 -20 -86 l0 -56 -38 7 c-61 11 -62
13 -62 109 0 92 4 104 29 97 9 -3 37 -10 64 -17z"/>
<path d="M1398 4868 l-58 -10 0 -58 0 -59 -52 -15 c-59 -17 -858 -231 -900
-241 -27 -7 -28 -6 -28 39 0 25 -4 46 -8 46 -4 0 -39 -11 -78 -23 l-69 -24 -3
-416 c-1 -230 1 -417 5 -417 5 0 41 14 81 32 l72 32 0 291 0 291 168 53 c92
30 175 56 185 58 16 5 17 -41 17 -865 l0 -870 -60 -22 -60 -22 0 -64 c0 -35 4
-64 9 -64 5 0 96 31 202 69 l194 69 3 72 c3 80 7 78 -77 44 -18 -8 -35 -14
-37 -14 -2 0 -3 384 -2 852 l3 852 190 53 c105 28 202 55 218 58 l27 7 0 -182
c0 -160 2 -181 15 -176 9 3 45 11 80 18 l65 11 0 304 0 303 -22 -1 c-13 -1
-49 -6 -80 -11z"/>
<path d="M1425 4181 l-70 -16 -3 -688 c-2 -653 -1 -688 15 -683 10 2 44 12 76
22 l57 18 0 683 c0 376 -1 682 -2 682 -2 -1 -34 -9 -73 -18z"/>
<path d="M4610 4601 c0 -134 -4 -231 -9 -231 -5 0 -48 9 -95 20 -205 49 -558
99 -851 120 -221 16 -205 19 -205 -39 0 -48 0 -48 38 -55 20 -3 68 -6 105 -6
38 0 67 -4 65 -8 -10 -24 -524 -781 -531 -782 -4 0 -6 181 -5 403 l3 402 63 3
62 3 0 54 0 55 -215 0 -215 0 0 -55 0 -55 60 0 60 0 0 -650 0 -650 -60 0 -60
0 0 -60 0 -60 210 0 210 0 0 60 0 60 -60 0 -60 0 0 130 0 129 80 119 c94 142
206 286 213 275 19 -33 207 -642 207 -672 0 -9 -19 -11 -72 -6 -40 3 -83 8
-95 11 -22 4 -23 1 -23 -60 l0 -64 78 -6 c280 -24 639 -89 1045 -189 l217 -54
0 218 0 219 -27 6 c-16 3 -44 10 -63 15 -62 16 -60 21 -60 -131 0 -139 0 -140
-22 -139 -13 0 -111 21 -218 47 l-195 47 -3 210 c-2 116 0 251 3 301 l7 91
121 -28 c168 -39 159 -40 155 28 l-3 57 -135 36 -135 35 -3 283 c-1 155 1 282
6 282 5 0 98 -18 207 -40 109 -22 200 -40 202 -40 1 0 4 -64 5 -142 l3 -143
53 -11 c29 -7 64 -15 77 -18 l25 -6 0 319 0 319 200 -52 200 -51 0 -856 0
-856 -65 18 -66 18 3 -66 3 -66 199 -83 c109 -46 200 -84 202 -84 2 0 4 30 4
68 l0 67 -55 30 -55 29 0 868 c0 688 3 868 13 868 6 -1 89 -29 182 -63 l170
-62 3 -292 2 -291 68 -26 c37 -14 71 -26 75 -26 4 0 7 188 7 418 l0 418 -67
25 c-37 13 -71 26 -75 27 -4 2 -8 -24 -8 -57 0 -34 -3 -61 -6 -61 -3 0 -88 26
-188 59 -143 46 -474 138 -721 199 -29 7 -30 10 -33 69 -3 69 -3 69 -91 79
l-61 7 0 -232z m-695 -234 l90 -12 3 -647 c2 -613 1 -648 -15 -647 -55 2 -157
26 -165 39 -5 8 -74 211 -153 450 l-145 435 132 197 c83 125 137 198 147 197
9 0 57 -6 106 -12z"/>
<path d="M3728 4163 l-111 -168 137 -412 c76 -227 141 -414 144 -416 4 -3 19
-7 35 -11 l27 -6 0 584 0 583 -37 7 c-81 13 -75 18 -195 -161z m82 -320 c0
-179 -2 -324 -5 -321 -3 2 -36 101 -75 219 l-69 214 56 100 c52 94 67 114 86
115 4 0 7 -147 7 -327z"/>
<path d="M3240 4133 l0 -208 128 195 c70 107 131 201 136 208 6 9 -23 12 -128
12 l-136 0 0 -207z m130 33 c0 -3 -22 -37 -50 -77 l-50 -73 0 77 0 77 50 0
c28 0 50 -2 50 -4z"/>
<path d="M3307 3488 l-87 -113 0 -72 0 -73 150 0 c115 0 148 3 145 13 -21 68
-117 357 -119 357 -1 0 -41 -51 -89 -112z m53 -215 c0 -9 -17 -13 -50 -13
l-50 0 0 57 c0 51 4 61 32 90 l33 34 17 -78 c10 -43 18 -84 18 -90z"/>
<path d="M2241 4509 c-150 -13 -291 -37 -331 -57 -73 -35 -70 -7 -70 -765 0
-742 -1 -724 58 -745 22 -7 102 -2 313 22 255 29 288 35 316 56 18 13 35 30
39 39 4 9 9 130 12 269 l5 253 -74 -6 c-41 -4 -80 -8 -86 -10 -10 -3 -13 -57
-13 -224 l0 -221 -22 -4 c-26 -5 -354 -36 -380 -36 -17 0 -18 37 -18 645 l0
644 33 6 c55 9 198 24 300 31 l97 7 0 -210 0 -210 53 4 c28 2 62 6 75 9 l23 5
-3 229 c-4 281 1 271 -134 275 -49 2 -136 -1 -193 -6z"/>
<path d="M2985 2684 c-16 -9 -38 -26 -47 -38 -23 -28 -24 -103 -1 -128 15 -16
15 -18 0 -18 -9 0 -20 -8 -25 -17 -12 -24 -13 -164 -2 -178 12 -14 226 -18
266 -5 73 24 109 121 66 179 -14 20 -17 32 -10 39 17 17 19 149 2 163 -8 7
-58 13 -117 15 -80 3 -108 1 -132 -12z m146 -74 c13 -7 19 -21 19 -44 l0 -33
-47 8 c-68 13 -80 18 -87 34 -13 36 67 60 115 35z m17 -173 c18 -12 14 -45 -7
-57 -29 -15 -93 -12 -118 5 -13 9 -22 28 -24 53 l-4 38 70 -16 c38 -8 76 -19
83 -23z"/>
<path d="M2770 2687 c-3 -3 -60 -8 -126 -11 -67 -3 -129 -9 -138 -12 -13 -5
-16 -21 -16 -83 0 -42 4 -82 9 -89 5 -8 22 -12 42 -10 34 3 34 3 37 61 3 56 4
57 32 57 24 0 30 -5 31 -22 1 -13 3 -34 4 -48 2 -14 4 -56 6 -95 2 -70 2 -70
-26 -75 -36 -6 -54 -33 -39 -57 10 -16 25 -18 120 -14 60 2 115 8 122 13 17
15 15 55 -4 62 -9 3 -26 6 -39 6 -13 0 -26 3 -28 8 -3 4 -8 58 -12 120 l-7
112 36 0 35 0 3 -52 c3 -51 4 -53 34 -56 48 -5 56 13 47 104 l-8 79 -55 3
c-31 2 -58 1 -60 -1z"/>
<path d="M3301 2671 c-17 -32 2 -61 40 -61 30 0 31 -1 25 -42 -3 -24 -8 -70
-11 -103 -9 -86 -13 -96 -38 -94 -49 4 -57 0 -57 -30 0 -32 11 -43 44 -46 162
-17 194 -17 205 3 14 26 -12 62 -45 62 -25 0 -29 14 -18 58 7 24 43 30 88 12
24 -9 26 -14 26 -70 0 -76 17 -96 94 -105 60 -8 86 3 86 34 0 25 -20 41 -51
41 -26 0 -27 2 -31 63 -3 53 0 66 19 90 44 55 20 143 -46 168 -14 6 -68 14
-121 19 -52 5 -118 12 -146 16 -46 6 -53 4 -63 -15z m282 -92 c24 -14 21 -48
-5 -58 -13 -4 -44 -6 -70 -3 -51 4 -55 11 -41 60 5 22 9 23 52 17 25 -4 54
-11 64 -16z"/>
<path d="M2215 2621 c-38 -9 -73 -18 -77 -19 -5 -1 -26 -2 -48 -2 -38 0 -80
-26 -80 -49 0 -23 33 -42 61 -36 32 7 28 15 54 -113 21 -104 20 -122 -8 -122
-45 0 -65 -50 -27 -70 14 -8 43 -6 107 6 118 21 133 28 133 59 0 27 -33 42
-69 32 -16 -4 -21 2 -26 35 -4 22 -5 42 -2 45 3 3 29 6 58 7 l52 1 13 -50 c18
-71 44 -89 114 -80 65 8 85 23 76 59 -6 23 -11 26 -51 26 -43 0 -45 2 -45 28
0 15 -7 38 -16 51 -13 18 -14 28 -5 47 27 59 1 135 -52 154 -41 14 -79 12
-162 -9z m115 -76 c23 -28 2 -53 -56 -66 -30 -7 -56 -10 -58 -8 -2 2 -7 18
-11 36 -6 30 -4 33 27 42 49 14 84 13 98 -4z"/>
<path d="M4043 2595 c-12 -9 -65 -73 -118 -144 -94 -125 -97 -128 -133 -127
-36 1 -37 0 -37 -33 l0 -34 95 -24 c123 -30 144 -28 148 14 3 28 0 33 -25 39
-15 3 -31 6 -35 7 -3 1 1 11 10 22 16 19 20 20 80 7 55 -12 62 -16 62 -38 0
-20 -4 -23 -28 -18 -34 7 -55 -14 -50 -48 2 -19 13 -25 63 -36 33 -7 86 -20
117 -29 44 -12 61 -13 71 -4 12 9 16 7 20 -9 6 -22 12 -25 164 -74 127 -41
170 -44 229 -17 45 21 103 98 105 140 6 134 -35 198 -152 235 -24 8 -83 27
-131 42 -72 23 -89 25 -102 15 -30 -25 -13 -71 26 -71 24 0 23 -9 -14 -128
l-33 -103 -36 6 c-25 4 -40 2 -45 -7 -6 -9 -10 -6 -14 11 -4 16 -17 28 -40 36
-18 6 -35 16 -37 21 -1 5 -16 81 -33 169 -17 88 -36 165 -43 171 -21 20 -62
24 -84 9z m27 -177 c0 -19 -17 -23 -37 -10 -10 6 -9 13 3 31 13 18 18 20 25
10 5 -8 9 -22 9 -31z m546 -82 c77 -36 88 -83 42 -174 -7 -13 -25 -30 -40 -38
-25 -13 -35 -13 -84 0 -31 8 -58 17 -61 20 -4 4 52 187 64 209 7 12 25 8 79
-17z"/>
<path d="M1786 2559 c-55 -13 -110 -46 -137 -83 -18 -24 -24 -47 -27 -101 -3
-62 0 -77 25 -125 48 -91 118 -123 218 -101 38 9 67 24 99 52 53 47 71 98 61
173 -18 136 -118 213 -239 185z m83 -95 c30 -22 61 -89 61 -136 0 -79 -107
-131 -161 -77 -43 43 -63 135 -39 179 24 45 98 63 139 34z"/>
<path d="M1435 2451 c-16 -4 -57 -22 -90 -38 -33 -17 -78 -36 -100 -42 -58
-16 -67 -24 -63 -57 3 -27 6 -29 44 -27 46 2 42 7 95 -121 35 -84 35 -90 4
-104 -18 -9 -25 -19 -25 -41 0 -44 28 -47 105 -12 37 17 77 34 90 37 54 13 63
76 12 82 -16 2 -34 -1 -41 -7 -9 -8 -16 -2 -28 23 l-16 33 59 28 c109 50 147
113 115 189 -23 55 -82 76 -161 57z m65 -102 c9 -15 8 -24 -2 -36 -12 -15 -98
-57 -103 -51 -1 2 -10 18 -19 36 l-17 33 43 19 c56 25 85 25 98 -1z"/>
<path d="M1020 2350 c-11 -11 -32 -22 -47 -26 -46 -10 -111 -52 -139 -89 -51
-68 -39 -156 27 -191 23 -11 28 -19 20 -27 -19 -19 -13 -42 30 -121 33 -61 45
-76 64 -76 35 0 55 10 55 29 0 12 10 17 31 19 103 8 208 118 196 205 -6 44
-47 94 -85 104 -16 4 -21 10 -17 23 4 14 -51 139 -70 158 -12 12 -49 8 -65 -8z
m15 -118 c6 -4 18 -19 27 -33 l17 -26 -68 -23 c-69 -24 -97 -22 -107 5 -16 40
94 104 131 77z m115 -167 c34 -41 -69 -127 -134 -111 -22 5 -52 39 -58 66 -3
12 112 56 153 59 15 0 32 -6 39 -14z"/>
<path d="M4848 2333 c-39 -9 -31 -59 13 -77 l27 -11 -41 -107 -41 -106 -45 2
c-44 1 -46 0 -46 -28 0 -33 2 -35 108 -76 92 -35 123 -38 132 -10 8 26 -11 60
-35 60 -27 0 -26 8 21 126 38 96 43 103 61 93 11 -6 31 -8 45 -5 20 6 24 12
21 38 -3 28 -9 34 -43 46 -22 8 -56 21 -75 29 -49 21 -82 30 -102 26z"/>
<path d="M5628 2253 c-30 -8 -22 -50 12 -68 32 -16 37 -29 18 -41 -6 -4 -17 1
-24 11 -16 21 -30 14 -20 -10 4 -11 16 -15 38 -13 28 2 34 8 36 31 3 23 -2 29
-27 38 -32 11 -39 23 -19 35 6 4 17 -1 24 -10 7 -10 15 -13 18 -7 3 5 -1 17
-10 25 -16 17 -17 17 -46 9z"/>
<path d="M5702 2193 c1 -56 2 -60 6 -23 l4 45 12 -39 c14 -50 30 -55 43 -14
l11 33 1 -32 c2 -63 21 -33 21 33 0 77 -15 82 -39 13 l-15 -44 -14 48 c-7 26
-17 47 -23 47 -5 0 -8 -30 -7 -67z"/>
<path d="M5105 2162 c-65 -41 -115 -133 -115 -212 0 -42 46 -123 85 -148 125
-80 269 -31 319 109 36 98 6 186 -80 240 -52 32 -167 38 -209 11z m137 -71
c13 -5 33 -19 46 -30 42 -41 22 -134 -41 -187 -25 -21 -38 -25 -70 -21 -93 13
-112 101 -44 200 29 42 66 55 109 38z"/>
<path d="M2769 2087 c-2 -3 -53 -7 -113 -11 -335 -20 -693 -79 -974 -160 -432
-125 -652 -301 -602 -482 36 -126 201 -244 481 -342 248 -87 509 -138 944
-187 189 -21 893 -29 1115 -12 582 43 1082 160 1347 315 93 54 176 131 204
188 31 66 23 148 -23 215 -127 187 -607 358 -1213 434 -27 4 -59 8 -70 10 -11
1 -65 6 -120 10 -55 4 -111 10 -125 12 -32 6 -845 15 -851 10z m578 -359 c-2
-7 -32 -105 -66 -218 -34 -113 -67 -220 -72 -237 -10 -30 -39 -47 -39 -23 0
12 140 471 147 483 7 12 35 8 30 -5z m217 -57 c36 -31 49 -73 50 -152 0 -94
-28 -159 -78 -183 -40 -19 -53 -20 -95 -5 -35 12 -56 49 -45 81 8 27 39 18 39
-12 0 -16 9 -29 25 -38 50 -27 97 13 115 97 l7 34 -27 -21 c-30 -24 -83 -29
-116 -12 -46 25 -65 126 -32 181 33 56 110 71 157 30z m546 12 c0 -13 3 -14
12 -5 19 19 58 14 90 -13 40 -34 67 -33 65 1 -3 37 20 42 33 8 13 -34 1 -73
-35 -116 -42 -49 -64 -101 -72 -169 -6 -47 -12 -64 -23 -64 -20 0 -25 56 -11
121 9 38 24 65 62 107 l51 57 -32 0 c-17 0 -47 11 -67 25 -47 31 -63 20 -63
-46 0 -37 -4 -49 -15 -49 -12 0 -15 16 -15 80 0 47 4 80 10 80 6 0 10 -8 10
-17z m-2663 -138 c4 -178 5 -185 43 -185 20 0 30 -5 30 -15 0 -13 -14 -15 -85
-13 -83 3 -121 20 -58 26 41 4 45 24 41 177 -3 109 -3 110 -28 113 -60 8 -48
45 13 40 l42 -3 2 -140z m373 128 c0 -9 -18 -38 -40 -64 -44 -53 -47 -59 -24
-59 8 0 29 -14 46 -30 28 -28 30 -35 26 -81 -6 -60 -35 -95 -90 -110 -93 -25
-178 56 -138 132 6 10 19 19 29 19 25 0 36 -31 17 -46 -39 -28 2 -74 64 -74
48 0 82 35 83 85 1 49 -33 79 -80 72 -18 -3 -35 -2 -37 2 -3 4 18 36 45 70
l51 62 -69 -3 -68 -3 -3 -37 c-5 -61 -22 -44 -22 22 l0 60 105 0 c92 0 105 -2
105 -17z m182 15 c0 -2 4 -75 7 -163 l6 -160 33 -3 c20 -2 32 -9 32 -18 0 -11
-18 -14 -90 -14 -72 0 -90 3 -90 14 0 9 12 16 33 18 l32 3 3 143 3 142 -30 0
c-31 0 -47 13 -36 30 5 8 92 15 97 8z m338 -26 c57 -57 63 -218 10 -292 -28
-39 -87 -58 -125 -39 -41 20 -63 56 -75 119 -12 65 -5 131 21 182 23 46 42 57
97 58 35 0 49 -6 72 -28z m1551 17 c41 -22 46 -89 7 -89 -14 0 -19 6 -17 23 5
33 -8 47 -45 47 -48 0 -96 -60 -96 -122 0 -18 2 -18 32 7 68 58 168 4 168 -91
0 -86 -55 -142 -128 -130 -70 11 -104 67 -104 170 1 83 22 147 60 176 27 22
91 27 123 9z m617 -61 c18 -18 14 -38 -8 -38 -11 0 -20 7 -20 15 0 16 -27 20
-47 7 -6 -4 -13 -16 -15 -27 -2 -15 3 -21 25 -23 15 -2 27 -9 27 -17 0 -8 -12
-15 -27 -17 -27 -3 -28 -6 -31 -63 -4 -78 3 -105 28 -105 11 0 20 -4 20 -10 0
-6 -28 -10 -65 -10 -62 0 -91 15 -42 22 20 3 22 9 25 86 3 77 2 82 -18 82 -11
0 -20 7 -20 15 0 8 9 15 19 15 13 0 21 9 26 30 4 16 14 34 23 40 24 13 86 12
100 -2z m-1895 -88 c24 -19 26 -29 29 -97 3 -81 23 -112 34 -54 9 44 26 39 22
-6 -3 -35 -6 -38 -37 -41 -19 -2 -37 1 -41 8 -5 7 -15 6 -36 -5 -16 -8 -39
-15 -50 -15 -30 0 -74 37 -74 62 0 26 27 58 49 58 34 0 89 21 95 36 10 27 -14
45 -53 42 -31 -3 -36 -6 -33 -25 2 -17 -2 -23 -17 -23 -27 0 -34 15 -21 40 22
42 92 52 133 20z m429 -7 c13 -11 18 -35 20 -92 3 -70 5 -76 26 -79 46 -7 20
-22 -38 -22 -33 0 -60 4 -60 10 0 6 9 10 20 10 18 0 20 7 20 75 0 63 -3 76
-19 85 -53 28 -91 -5 -91 -81 0 -60 7 -79 31 -79 10 0 19 -4 19 -10 0 -6 -27
-10 -60 -10 -33 0 -60 4 -60 10 0 6 9 10 20 10 19 0 21 5 18 76 -3 88 -16 105
-65 88 -27 -9 -28 -12 -31 -87 -2 -64 0 -77 13 -77 8 0 15 -4 15 -10 0 -5 -25
-10 -55 -10 -30 0 -55 5 -55 10 0 6 9 10 20 10 18 0 20 7 20 85 0 78 -2 85
-20 85 -11 0 -20 5 -20 10 0 6 16 10 35 10 19 0 35 -5 35 -10 0 -7 6 -7 19 0
25 13 84 13 97 0 7 -7 21 -6 45 5 37 16 75 12 101 -12z m1548 17 c0 -7 6 -7
19 0 26 13 84 13 98 -1 8 -8 17 -8 31 0 31 17 87 13 111 -6 17 -15 21 -31 23
-98 3 -74 5 -80 26 -83 46 -7 20 -22 -38 -22 -33 0 -60 4 -60 10 0 6 9 10 20
10 18 0 20 7 20 72 0 76 -15 108 -52 108 -36 0 -58 -36 -58 -94 0 -67 7 -86
31 -86 10 0 19 -4 19 -10 0 -6 -27 -10 -60 -10 -33 0 -60 4 -60 10 0 6 9 10
20 10 18 0 20 7 20 80 0 68 -3 81 -19 90 -29 15 -39 13 -66 -15 -20 -19 -25
-34 -25 -74 0 -59 7 -81 26 -81 8 0 14 -4 14 -10 0 -5 -25 -10 -55 -10 -30 0
-55 5 -55 10 0 6 9 10 20 10 18 0 20 7 20 85 0 78 -2 85 -20 85 -11 0 -20 7
-20 15 0 10 11 15 35 15 19 0 35 -5 35 -10z m-542 -183 c3 -22 -1 -27 -18 -27
-23 0 -35 22 -26 46 10 25 41 12 44 -19z"/>
<path d="M3458 1650 c-22 -13 -41 -74 -33 -102 13 -40 36 -58 76 -58 46 0 69
27 69 81 0 68 -59 110 -112 79z"/>
<path d="M2228 1650 c-50 -30 -64 -200 -22 -257 43 -58 111 -35 133 44 38 135
-28 261 -111 213z"/>
<path d="M3772 1507 c-24 -25 -30 -84 -12 -117 15 -28 67 -43 99 -27 49 23 58
122 14 155 -27 20 -77 15 -101 -11z"/>
<path d="M2556 1424 c-57 -15 -69 -24 -60 -47 16 -42 98 -28 110 17 10 39 2
44 -50 30z"/>
</g>
</svg>
